<svg width="96" height="63" viewBox="0 0 96 63" fill="none" xmlns="http://www.w3.org/2000/svg">
<path d="M84.7023 52.8583V5.91562C84.7023 2.65599 82.0055 0 78.6959 0H17.3245C14.0149 0 11.3182 2.65599 11.3182 5.91562V52.8583H0V56.5606C0 59.8202 2.69674 62.4762 6.00638 62.4762H89.9936C93.3033 62.4762 96 59.8202 96 56.5606V52.8583H84.7023ZM14.1783 5.91562C14.1783 4.20532 15.588 2.81696 17.3245 2.81696H78.6959C80.4324 2.81696 81.8421 4.20532 81.8421 5.91562V52.8583H79.1862V8.00822C79.1862 6.47901 77.9196 5.2315 76.3669 5.2315H19.6535C18.1009 5.2315 16.8342 6.47901 16.8342 8.00822V52.8382H14.1783V5.91562ZM35.9157 55.6752H59.7165V56.1179C59.7165 56.6813 59.2467 57.1441 58.6746 57.1441H36.9577C36.3856 57.1441 35.9157 56.6813 35.9157 56.1179V55.6752ZM77.7766 52.8583H18.2439V8.00822C18.2439 7.24362 18.8772 6.63998 19.6331 6.63998H76.3465C77.1228 6.63998 77.7357 7.26374 77.7357 8.00822V52.8583H77.7766ZM93.1603 56.5405C93.1603 58.2508 91.7506 59.6391 90.0141 59.6391H6.02681C4.29027 59.6391 2.88061 58.2508 2.88061 56.5405V55.6551H11.3386H34.5061V56.0978C34.5061 57.4459 35.6093 58.5325 36.9781 58.5325H58.695C60.0638 58.5325 61.1671 57.4459 61.1671 56.0978V55.6551H84.7227H93.1603V56.5405Z" fill="black"/>
<path d="M50.6867 20.9663H61.8006C62.1887 20.9663 62.5156 20.6444 62.5156 20.2621C62.5156 19.8798 62.1887 19.5579 61.8006 19.5579H50.6867C50.2986 19.5579 49.9717 19.8798 49.9717 20.2621C49.9717 20.6444 50.2986 20.9663 50.6867 20.9663Z" fill="black"/>
<path d="M50.6867 27.063H61.8006C62.1887 27.063 62.5156 26.7411 62.5156 26.3588C62.5156 25.9765 62.1887 25.6545 61.8006 25.6545H50.6867C50.2986 25.6545 49.9717 25.9765 49.9717 26.3588C49.9717 26.7411 50.2986 27.063 50.6867 27.063Z" fill="black"/>
<path d="M50.6867 33.18H57.8372C58.2254 33.18 58.5522 32.858 58.5522 32.4757C58.5522 32.0934 58.2254 31.7715 57.8372 31.7715H50.6867C50.2986 31.7715 49.9717 32.0934 49.9717 32.4757C49.9717 32.858 50.2986 33.18 50.6867 33.18Z" fill="black"/>
<path d="M61.8003 31.7715H59.8186C59.4304 31.7715 59.1035 32.0934 59.1035 32.4757C59.1035 32.858 59.4304 33.18 59.8186 33.18H61.8003C62.1884 33.18 62.5153 32.858 62.5153 32.4757C62.5153 32.0934 62.2089 31.7715 61.8003 31.7715Z" fill="black"/>
<path d="M50.6867 23.9036H53.9555C54.3437 23.9036 54.6706 23.5817 54.6706 23.1994C54.6706 22.8171 54.3437 22.4951 53.9555 22.4951H50.6867C50.2986 22.4951 49.9717 22.8171 49.9717 23.1994C49.9717 23.5817 50.2986 23.9036 50.6867 23.9036Z" fill="black"/>
<path d="M61.7997 22.4951H57.1213C56.7331 22.4951 56.4062 22.8171 56.4062 23.1994C56.4062 23.5817 56.7331 23.9036 57.1213 23.9036H61.7997C62.1879 23.9036 62.5148 23.5817 62.5148 23.1994C62.5148 22.8171 62.2083 22.4951 61.7997 22.4951Z" fill="black"/>
<path d="M50.6867 30.0008H61.8006C62.1887 30.0008 62.5156 29.6788 62.5156 29.2965C62.5156 28.9142 62.1887 28.5923 61.8006 28.5923H50.6867C50.2986 28.5923 49.9717 28.9142 49.9717 29.2965C49.9717 29.6788 50.2986 30.0008 50.6867 30.0008Z" fill="black"/>
<path d="M50.6867 36.0974H61.8006C62.1887 36.0974 62.5156 35.7755 62.5156 35.3932C62.5156 35.0109 62.1887 34.689 61.8006 34.689H50.6867C50.2986 34.689 49.9717 35.0109 49.9717 35.3932C49.9717 35.7755 50.2986 36.0974 50.6867 36.0974Z" fill="black"/>
<path d="M65.213 16.5596H50.3197C49.4616 16.5596 48.6444 16.9217 48.0724 17.5455C48.0519 17.5656 48.0315 17.5857 48.0111 17.626C47.9907 17.6059 47.9702 17.5857 47.9498 17.5656C47.3778 16.9419 46.5606 16.5797 45.7025 16.5797H30.8091V17.3443H28.1328V41.7915H47.296H48.7261H67.8894V17.3041H65.213V16.5596V16.5596ZM49.1347 18.4912C49.4207 18.1693 49.8498 17.9681 50.2992 17.9681H63.7625V37.7069H50.2992H48.7057V19.5375C48.7261 19.1351 48.8691 18.7729 49.1347 18.4912ZM46.8874 18.4912C47.153 18.7729 47.296 19.1351 47.296 19.5375V37.7069H45.7025H32.2392V17.9681H45.7025C46.152 17.9681 46.581 18.1491 46.8874 18.4912ZM29.5629 40.3428V18.7125H30.8091V39.0953H45.7025C46.4584 39.0953 47.0917 39.6184 47.2552 40.3227H29.5629V40.3428ZM66.4593 18.7125V40.3428H48.767C48.91 39.6385 49.5638 39.1154 50.3197 39.1154H65.213V18.7125H66.4593Z" fill="black"/>
<path d="M34.2209 20.9663H45.3348C45.7229 20.9663 46.0498 20.6444 46.0498 20.2621C46.0498 19.8798 45.7229 19.5579 45.3348 19.5579H34.2209C33.8327 19.5579 33.5059 19.8798 33.5059 20.2621C33.5059 20.6444 33.8123 20.9663 34.2209 20.9663Z" fill="black"/>
<path d="M34.2209 27.063H45.3348C45.7229 27.063 46.0498 26.7411 46.0498 26.3588C46.0498 25.9765 45.7229 25.6545 45.3348 25.6545H34.2209C33.8327 25.6545 33.5059 25.9765 33.5059 26.3588C33.5059 26.7411 33.8123 27.063 34.2209 27.063Z" fill="black"/>
<path d="M45.3343 31.7715H38.1838C37.7956 31.7715 37.4688 32.0934 37.4688 32.4757C37.4688 32.858 37.7956 33.18 38.1838 33.18H45.3343C45.7224 33.18 46.0493 32.858 46.0493 32.4757C46.0493 32.0934 45.7224 31.7715 45.3343 31.7715Z" fill="black"/>
<path d="M34.2209 33.18H36.2026C36.5908 33.18 36.9176 32.858 36.9176 32.4757C36.9176 32.0934 36.5908 31.7715 36.2026 31.7715H34.2209C33.8327 31.7715 33.5059 32.0934 33.5059 32.4757C33.5059 32.858 33.8123 33.18 34.2209 33.18Z" fill="black"/>
<path d="M45.3354 22.4951H42.0666C41.6784 22.4951 41.3516 22.8171 41.3516 23.1994C41.3516 23.5817 41.6784 23.9036 42.0666 23.9036H45.3354C45.7236 23.9036 46.0504 23.5817 46.0504 23.1994C46.0504 22.8171 45.7236 22.4951 45.3354 22.4951Z" fill="black"/>
<path d="M34.2209 23.9036H38.8993C39.2875 23.9036 39.6144 23.5817 39.6144 23.1994C39.6144 22.8171 39.2875 22.4951 38.8993 22.4951H34.2209C33.8327 22.4951 33.5059 22.8171 33.5059 23.1994C33.5059 23.5817 33.8123 23.9036 34.2209 23.9036Z" fill="black"/>
<path d="M34.2209 30.0008H45.3348C45.7229 30.0008 46.0498 29.6788 46.0498 29.2965C46.0498 28.9142 45.7229 28.5923 45.3348 28.5923H34.2209C33.8327 28.5923 33.5059 28.9142 33.5059 29.2965C33.5059 29.6788 33.8123 30.0008 34.2209 30.0008Z" fill="black"/>
<path d="M34.2209 36.0974H45.3348C45.7229 36.0974 46.0498 35.7755 46.0498 35.3932C46.0498 35.0109 45.7229 34.689 45.3348 34.689H34.2209C33.8327 34.689 33.5059 35.0109 33.5059 35.3932C33.5059 35.7755 33.8123 36.0974 34.2209 36.0974Z" fill="black"/>
</svg>
