<?xml version="1.0" encoding="iso-8859-1"?>
<!-- Generator: Adobe Illustrator 19.0.0, SVG Export Plug-In . SVG Version: 6.00 Build 0)  -->
<svg version="1.1" id="Layer_1" xmlns="http://www.w3.org/2000/svg" xmlns:xlink="http://www.w3.org/1999/xlink" x="0px" y="0px"
	 viewBox="0 0 490 490" style="enable-background:new 0 0 490 490;" xml:space="preserve">
<g>
	<g>
		<path d="M480,0H10C4.477,0,0,4.477,0,10v340c0,5.523,4.477,10,10,10h160v70h-20c-5.523,0-10,4.477-10,10v40
			c0,5.523,4.477,10,10,10h190c5.522,0,10-4.477,10-10v-40c0-5.523-4.478-10-10-10h-20v-70h160c5.522,0,10-4.477,10-10V10
			C490,4.477,485.522,0,480,0z M330,450v20H160v-20h20h130H330z M190,430v-70h110v70H190z M470,340H310H180H20v-55h145h60h40h70h135
			V340z M181.18,105L195,77.361L208.82,105H181.18z M215,125v140h-10V125H215z M185,125v140h-10V125H185z M275,215v-40h30v-20h-30
			v-40h30V95h-30V65h50v200h-50v-30h30v-20H275z M470,265H345V55c0-5.523-4.478-10-10-10h-70c-5.523,0-10,4.477-10,10v210h-20V115
			h-0.018c0-1.528-0.332-3.061-1.038-4.472l-30-60C202.25,47.14,198.788,45,195,45c-3.788,0-7.251,2.14-8.944,5.528l-30,60
			c-0.706,1.412-1.038,2.944-1.038,4.472H155v150H20V20h450V265z"/>
	</g>
</g>
<g>
</g>
<g>
</g>
<g>
</g>
<g>
</g>
<g>
</g>
<g>
</g>
<g>
</g>
<g>
</g>
<g>
</g>
<g>
</g>
<g>
</g>
<g>
</g>
<g>
</g>
<g>
</g>
<g>
</g>
</svg>
