<svg width="37" height="37" viewBox="0 0 37 37" fill="none" xmlns="http://www.w3.org/2000/svg">
<path d="M3 33.9997H5.2L29.45 9.74974L28.35 8.64974L27.25 7.54974L3 31.7997V33.9997ZM0 36.9997V30.5997L29.4 1.19974C29.9667 0.633071 30.675 0.358071 31.525 0.374738C32.375 0.391404 33.0833 0.683071 33.65 1.24974L35.8 3.39974C36.3667 3.9664 36.65 4.6664 36.65 5.49974C36.65 6.33307 36.3667 7.03307 35.8 7.59974L6.4 36.9997H0ZM33.5 5.44974L31.45 3.39974L33.5 5.44974ZM29.45 9.74974L28.35 8.64974L27.25 7.54974L29.45 9.74974Z" fill="white"/>
</svg>
