<svg width="106" height="122" viewBox="0 0 106 122" fill="none" xmlns="http://www.w3.org/2000/svg">
<path d="M53 122C52.7659 122 52.5359 121.94 52.3216 121.829L0.749775 94.0302C0.289595 93.78 0 93.2995 0 92.7713V29.2307C0 28.7065 0.289595 28.222 0.749775 27.9718L52.3216 0.172751C52.7461 -0.0575837 53.2499 -0.0575837 53.6784 0.172751L105.25 27.9718C105.71 28.222 106 28.7065 106 29.2307V92.7713C106 93.2995 105.71 93.78 105.25 94.0302L53.6784 121.829C53.4641 121.944 53.2341 122 53 122ZM2.85629 91.9175L53 118.946L103.144 91.9175V30.0845L53 3.05591L2.85629 30.0845V91.9175ZM53 98.1723C50.0247 98.1723 47.6048 95.7498 47.6048 92.7713C47.6048 92.3106 47.6643 91.8619 47.7714 91.429L29.035 80.7105C28.0591 81.6835 26.7142 82.2871 25.2305 82.2871C22.2552 82.2871 19.8353 79.8646 19.8353 76.8861C19.8353 74.4041 21.5174 72.3073 23.8024 71.6758V50.3222C21.5174 49.6947 19.8353 47.5979 19.8353 45.1119C19.8353 42.1334 22.2552 39.7109 25.2305 39.7109C26.7142 39.7109 28.0591 40.3145 29.035 41.2875L47.7714 30.569C47.6643 30.1441 47.6048 29.6953 47.6048 29.2307C47.6048 26.2522 50.0247 23.8297 53 23.8297C55.9753 23.8297 58.3952 26.2522 58.3952 29.2307C58.3952 29.6953 58.3357 30.1441 58.2246 30.573L76.965 41.2915C77.9409 40.3185 79.2858 39.7149 80.7695 39.7149C83.7448 39.7149 86.1647 42.1374 86.1647 45.1158C86.1647 47.5979 84.4787 49.6947 82.1976 50.3262V71.6798C84.4787 72.3073 86.1647 74.4081 86.1647 76.8901C86.1647 79.8686 83.7448 82.2911 80.7695 82.2911C79.2858 82.2911 77.937 81.6874 76.9611 80.7145L58.2246 91.429C58.3357 91.8579 58.3952 92.3067 58.3952 92.7713C58.3952 95.7498 55.9753 98.1723 53 98.1723ZM53 90.2297C51.5996 90.2297 50.4611 91.3694 50.4611 92.7713C50.4611 94.1732 51.5996 95.3129 53 95.3129C54.4004 95.3129 55.5389 94.1732 55.5389 92.7713C55.5389 91.3694 54.4004 90.2297 53 90.2297ZM30.4552 78.2284L49.1916 88.947C49.8422 88.2996 50.6594 87.8151 51.5719 87.561V67.8991C50.0644 67.5894 48.7354 66.7951 47.7476 65.6831L30.4869 75.659C30.5781 76.0562 30.6257 76.4612 30.6257 76.8861C30.6257 77.3468 30.5662 77.7956 30.4552 78.2284ZM54.4281 87.561C55.3366 87.8072 56.1538 88.2957 56.8044 88.943L75.5448 78.2284C75.4298 77.7956 75.3742 77.3468 75.3742 76.8861C75.3742 76.4692 75.4258 76.0561 75.5131 75.663L58.2484 65.6831C57.2646 66.7911 55.9317 67.5854 54.4281 67.8991V87.561ZM80.7695 74.3445C79.3691 74.3445 78.2305 75.4843 78.2305 76.8861C78.2305 78.288 79.3691 79.4278 80.7695 79.4278C82.1698 79.4278 83.3084 78.288 83.3084 76.8861C83.3084 75.4843 82.1698 74.3445 80.7695 74.3445ZM25.2305 74.3445C23.8302 74.3445 22.6916 75.4843 22.6916 76.8861C22.6916 78.288 23.8302 79.4278 25.2305 79.4278C26.6309 79.4278 27.7695 78.288 27.7695 76.8861C27.7695 75.4843 26.6309 74.3445 25.2305 74.3445ZM59.6845 63.213L76.8778 73.1531C77.5442 72.4582 78.3932 71.9379 79.3413 71.6798V50.3262C78.3892 50.0641 77.5403 49.5478 76.8778 48.8488L59.6845 58.785C59.9146 59.48 60.0415 60.2266 60.0415 61.001C60.0376 61.7714 59.9106 62.518 59.6845 63.213ZM26.6587 71.6758C27.6108 71.934 28.4597 72.4502 29.1222 73.1452L46.3155 63.209C46.0854 62.5141 45.9624 61.7714 45.9624 61.001C45.9624 60.2306 46.0854 59.484 46.3155 58.789L29.1222 48.8488C28.4597 49.5438 27.6108 50.0641 26.6587 50.3262V71.6758ZM53 56.8153C50.6951 56.8153 48.8187 58.6937 48.8187 61.001C48.8187 63.3083 50.6951 65.1867 53 65.1867C55.3049 65.1867 57.1813 63.3083 57.1813 61.001C57.1813 58.6937 55.3049 56.8153 53 56.8153ZM30.4869 46.339L47.7516 56.3188C48.7394 55.2109 50.0683 54.4166 51.5758 54.1029V34.441C50.6634 34.1908 49.8462 33.7063 49.1956 33.055L30.4591 43.7735C30.5662 44.2024 30.6257 44.6512 30.6257 45.1158C30.6257 45.5368 30.5781 45.9419 30.4869 46.339ZM54.4281 54.1029C55.9317 54.4166 57.2606 55.2069 58.2484 56.3149L75.5131 46.335C75.4219 45.9419 75.3742 45.5328 75.3742 45.1158C75.3742 44.6512 75.4338 44.2024 75.5448 43.7735L56.8084 33.055C56.1578 33.7063 55.3406 34.1908 54.4281 34.441V54.1029ZM80.7695 42.5742C79.3691 42.5742 78.2305 43.714 78.2305 45.1158C78.2305 46.5177 79.3691 47.6575 80.7695 47.6575C82.1698 47.6575 83.3084 46.5177 83.3084 45.1158C83.3084 43.714 82.1698 42.5742 80.7695 42.5742ZM25.2305 42.5742C23.8302 42.5742 22.6916 43.714 22.6916 45.1158C22.6916 46.5177 23.8302 47.6575 25.2305 47.6575C26.6309 47.6575 27.7695 46.5177 27.7695 45.1158C27.7695 43.714 26.6309 42.5742 25.2305 42.5742ZM53 26.6891C51.5996 26.6891 50.4611 27.8288 50.4611 29.2307C50.4611 30.6325 51.5996 31.7723 53 31.7723C54.4004 31.7723 55.5389 30.6325 55.5389 29.2307C55.5389 27.8288 54.4004 26.6891 53 26.6891Z" fill="#0353A4"/>
</svg>
