<svg width="104" height="118" viewBox="0 0 104 118" fill="none" xmlns="http://www.w3.org/2000/svg">
<path d="M52 118C51.7704 118 51.5446 117.942 51.3344 117.835L0.735628 90.9472C0.284131 90.7053 0 90.2405 0 89.7296V28.2723C0 27.7653 0.284131 27.2967 0.735628 27.0547L51.3344 0.167087C51.7509 -0.0556957 52.2452 -0.0556957 52.6656 0.167087L103.264 27.0547C103.716 27.2967 104 27.7653 104 28.2723V89.7296C104 90.2405 103.716 90.7053 103.264 90.9472L52.6656 117.835C52.4554 117.946 52.2296 118 52 118ZM2.80239 88.9038L52 115.046L101.198 88.9038V29.0981L52 2.95571L2.80239 29.0981V88.9038ZM52 94.9535C49.0808 94.9535 46.7066 92.6104 46.7066 89.7296C46.7066 89.2841 46.765 88.85 46.8701 88.4313L28.4871 78.0643C27.5296 79.0053 26.2102 79.5892 24.7545 79.5892C21.8353 79.5892 19.4611 77.2461 19.4611 74.3653C19.4611 71.9646 21.1114 69.9365 23.3533 69.3258V48.6723C21.1114 48.0654 19.4611 46.0373 19.4611 43.6328C19.4611 40.752 21.8353 38.4089 24.7545 38.4089C26.2102 38.4089 27.5296 38.9928 28.4871 39.9338L46.8701 29.5667C46.765 29.1557 46.7066 28.7217 46.7066 28.2723C46.7066 25.3915 49.0808 23.0484 52 23.0484C54.9192 23.0484 57.2934 25.3915 57.2934 28.2723C57.2934 28.7217 57.235 29.1557 57.126 29.5706L75.5129 39.9377C76.4704 38.9966 77.7898 38.4128 79.2455 38.4128C82.1647 38.4128 84.5389 40.7558 84.5389 43.6366C84.5389 46.0373 82.8847 48.0654 80.6467 48.6761V69.3296C82.8847 69.9365 84.5389 71.9685 84.5389 74.3691C84.5389 77.2499 82.1647 79.593 79.2455 79.593C77.7898 79.593 76.4665 79.0092 75.509 78.0681L57.126 88.4313C57.235 88.8462 57.2934 89.2802 57.2934 89.7296C57.2934 92.6104 54.9192 94.9535 52 94.9535ZM52 87.2713C50.626 87.2713 49.509 88.3737 49.509 89.7296C49.509 91.0855 50.626 92.1879 52 92.1879C53.3739 92.1879 54.491 91.0855 54.491 89.7296C54.491 88.3737 53.3739 87.2713 52 87.2713ZM29.8805 75.6636L48.2635 86.0307C48.9018 85.4046 49.7036 84.936 50.5988 84.6901V65.6729C49.1198 65.3733 47.8159 64.6051 46.8467 63.5296L29.9117 73.1784C30.0012 73.5625 30.0479 73.9543 30.0479 74.3653C30.0479 74.8109 29.9895 75.2449 29.8805 75.6636ZM53.4012 84.6901C54.2925 84.9283 55.0943 85.4007 55.7326 86.0268L74.1195 75.6636C74.0066 75.2449 73.9521 74.8109 73.9521 74.3653C73.9521 73.962 74.0027 73.5625 74.0883 73.1822L57.1494 63.5296C56.1841 64.6013 54.8763 65.3695 53.4012 65.6729C53.4012 65.6729 53.4012 84.6901 53.4012 84.6901ZM79.2455 71.907C77.8716 71.907 76.7545 73.0094 76.7545 74.3653C76.7545 75.7212 77.8716 76.8236 79.2455 76.8236C80.6195 76.8236 81.7365 75.7212 81.7365 74.3653C81.7365 73.0094 80.6195 71.907 79.2455 71.907ZM24.7545 71.907C23.3805 71.907 22.2635 73.0094 22.2635 74.3653C22.2635 75.7212 23.3805 76.8236 24.7545 76.8236C26.1284 76.8236 27.2455 75.7212 27.2455 74.3653C27.2455 73.0094 26.1284 71.907 24.7545 71.907ZM58.5584 61.1404L75.4272 70.7547C76.0811 70.0825 76.9141 69.5793 77.8443 69.3296V48.6761C76.9102 48.4226 76.0772 47.9233 75.4272 47.2472L58.5584 56.8576C58.7841 57.5298 58.9087 58.2519 58.9087 59.001C58.9048 59.7461 58.7802 60.4683 58.5584 61.1404ZM26.1557 69.3258C27.0898 69.5755 27.9228 70.0748 28.5728 70.747L45.4416 61.1366C45.2159 60.4644 45.0952 59.7461 45.0952 59.001C45.0952 58.2558 45.2159 57.5337 45.4416 56.8615L28.5728 47.2472C27.9228 47.9194 27.0898 48.4226 26.1557 48.6761V69.3258ZM52 54.9525C49.7386 54.9525 47.8976 56.7693 47.8976 59.001C47.8976 61.2326 49.7386 63.0495 52 63.0495C54.2614 63.0495 56.1024 61.2326 56.1024 59.001C56.1024 56.7693 54.2614 54.9525 52 54.9525ZM29.9117 44.8197L46.8506 54.4723C47.8198 53.4007 49.1236 52.6324 50.6027 52.329V33.3118C49.7075 33.0698 48.9057 32.6012 48.2674 31.9713L29.8844 42.3383C29.9895 42.7532 30.0479 43.1872 30.0479 43.6366C30.0479 44.0438 30.0012 44.4356 29.9117 44.8197ZM53.4012 52.329C54.8763 52.6324 56.1802 53.3968 57.1494 54.4685L74.0883 44.8158C73.9988 44.4356 73.9521 44.0399 73.9521 43.6366C73.9521 43.1872 74.0105 42.7532 74.1195 42.3383L55.7365 31.9713C55.0982 32.6012 54.2964 33.0698 53.4012 33.3118V52.329ZM79.2455 41.1783C77.8716 41.1783 76.7545 42.2807 76.7545 43.6366C76.7545 44.9925 77.8716 46.0949 79.2455 46.0949C80.6195 46.0949 81.7365 44.9925 81.7365 43.6366C81.7365 42.2807 80.6195 41.1783 79.2455 41.1783ZM24.7545 41.1783C23.3805 41.1783 22.2635 42.2807 22.2635 43.6366C22.2635 44.9925 23.3805 46.0949 24.7545 46.0949C26.1284 46.0949 27.2455 44.9925 27.2455 43.6366C27.2455 42.2807 26.1284 41.1783 24.7545 41.1783ZM52 25.814C50.626 25.814 49.509 26.9164 49.509 28.2723C49.509 29.6282 50.626 30.7306 52 30.7306C53.3739 30.7306 54.491 29.6282 54.491 28.2723C54.491 26.9164 53.3739 25.814 52 25.814Z" fill="white"/>
</svg>
