<svg width="116" height="113" viewBox="0 0 116 113" fill="none" xmlns="http://www.w3.org/2000/svg">
<path d="M108.585 28.2949C106.217 25.8859 103.393 23.975 100.28 22.674C97.1672 21.373 93.827 20.7079 90.4549 20.7177H90.363C88.9223 20.7161 87.5119 20.3028 86.2967 19.5262C85.0815 18.7495 84.1118 17.6416 83.5009 16.3321C81.2431 11.4536 77.6431 7.3244 73.1251 4.43086C68.6071 1.53732 63.3592 0 57.9997 0C52.6402 0 47.3924 1.53732 42.8744 4.43086C38.3563 7.3244 34.7564 11.4536 32.4985 16.3321C31.8873 17.6422 30.917 18.7505 29.701 19.5272C28.485 20.3039 27.0737 20.7169 25.6323 20.7177H25.5447C22.1739 20.7177 18.8364 21.3873 15.7246 22.6878C12.6128 23.9884 9.78826 25.8942 7.41376 28.2955C5.03925 30.6968 3.16174 33.546 1.88945 36.6789C0.617166 39.8118 -0.0247419 43.1664 0.000729364 46.5495C0.104389 60.5794 11.698 71.9935 25.845 71.9935C26.2735 71.9935 26.6845 71.8227 26.9875 71.5185C27.2905 71.2144 27.4608 70.8019 27.4608 70.3718C27.4608 69.9417 27.2905 69.5292 26.9875 69.2251C26.6845 68.921 26.2735 68.7501 25.845 68.7501C13.4667 68.7501 3.32288 58.7803 3.23232 46.5256C3.20997 43.5705 3.77059 40.6401 4.88187 37.9035C5.99316 35.1668 7.63312 32.678 9.70723 30.5804C11.7813 28.4829 14.2486 26.8181 16.9668 25.682C19.6849 24.5459 22.6002 23.961 25.5447 23.961H25.6366C27.6928 23.9583 29.7057 23.3679 31.4399 22.259C33.174 21.1501 34.5577 19.5686 35.429 17.6993C37.4272 13.3813 40.6134 9.72636 44.6123 7.16519C48.6111 4.60401 53.256 3.24327 57.9997 3.24327C62.7434 3.24327 67.3882 4.60401 71.3871 7.16519C75.3859 9.72636 78.5721 13.3813 80.5703 17.6993C81.4411 19.568 82.8241 21.1493 84.5574 22.2582C86.2907 23.3671 88.3028 23.9577 90.3583 23.961H90.4549C93.3993 23.961 96.3146 24.5459 99.0328 25.682C101.751 26.8181 104.218 28.4829 106.292 30.5805C108.366 32.678 110.006 35.1669 111.118 37.9035C112.229 40.6402 112.789 43.5705 112.767 46.5256C112.676 58.7803 102.533 68.7501 90.1546 68.7501C89.7261 68.7501 89.3151 68.921 89.0121 69.2251C88.7091 69.5292 88.5388 69.9417 88.5388 70.3718C88.5388 70.8019 88.7091 71.2144 89.0121 71.5185C89.3151 71.8227 89.7261 71.9935 90.1546 71.9935C104.301 71.9935 115.895 60.5794 115.999 46.5495C116.034 43.1649 115.396 39.8073 114.123 36.673C112.85 33.5386 110.968 30.6904 108.585 28.2949Z" fill="#004F9E"/>
<path d="M25.3305 29.004C23.049 29.004 20.7901 29.4573 18.684 30.3376C16.5779 31.2179 14.6662 32.5079 13.0592 34.1332C11.4521 35.7585 10.1814 37.687 9.32044 39.8075C8.45943 41.9279 8.02511 44.1985 8.04249 46.4882C8.04563 46.9162 8.21721 47.3256 8.51984 47.6272C8.82247 47.9287 9.2316 48.098 9.65804 48.098H9.67047C10.0989 48.0947 10.5086 47.9208 10.8093 47.6144C11.11 47.3081 11.2772 46.8944 11.2741 46.4644C11.2598 44.6025 11.6129 42.7563 12.3129 41.0321C13.0129 39.3078 14.046 37.7397 15.3527 36.4181C16.6593 35.0965 18.2137 34.0476 19.9262 33.3317C21.6387 32.6159 23.4754 32.2474 25.3305 32.2473H25.4235C25.852 32.2473 26.263 32.0765 26.566 31.7723C26.869 31.4682 27.0393 31.0557 27.0393 30.6256C27.0393 30.1955 26.869 29.783 26.566 29.4789C26.263 29.1748 25.852 29.0039 25.4235 29.0039L25.3305 29.004Z" fill="#004F9E"/>
<path d="M57.9997 30.002C54.1025 30.0064 50.3662 31.5622 47.6105 34.328C44.8548 37.0938 43.3047 40.8438 43.3002 44.7553V45.3006C43.2998 45.6715 43.1528 46.0271 42.8915 46.2894C42.6302 46.5517 42.2759 46.6992 41.9063 46.6996H39.3477C37.7225 46.7015 36.1644 47.3503 35.0152 48.5037C33.8661 49.6571 33.2196 51.2208 33.2178 52.852V80.7414C33.2196 82.3725 33.866 83.9364 35.0152 85.0898C36.1644 86.2432 37.7225 86.892 39.3477 86.8939H76.6517C78.2769 86.8921 79.835 86.2432 80.9842 85.0898C82.1335 83.9364 82.7799 82.3726 82.7817 80.7414V52.8519C82.7798 51.2207 82.1334 49.6569 80.9842 48.5036C79.835 47.3502 78.2769 46.7014 76.6517 46.6996H73.8019C73.5096 46.6992 73.2294 46.5825 73.0227 46.375C72.816 46.1676 72.6997 45.8863 72.6993 45.5929V44.7555C72.6949 40.844 71.1448 37.094 68.389 34.3281C65.6333 31.5622 61.8969 30.0064 57.9997 30.002ZM51.8705 45.1263C51.8689 44.3174 52.0262 43.5161 52.3335 42.7683C52.6408 42.0205 53.092 41.3409 53.6613 40.7683C54.2306 40.1958 54.9068 39.7415 55.6513 39.4316C56.3957 39.1216 57.1937 38.9621 57.9997 38.9621C58.8056 38.962 59.6037 39.1215 60.3481 39.4315C61.0926 39.7414 61.7688 40.1956 62.3381 40.7681C62.9075 41.3407 63.3587 42.0203 63.666 42.7681C63.9733 43.5159 64.1307 44.3171 64.1291 45.126V45.5929C64.1287 45.8863 64.0124 46.1675 63.8057 46.375C63.599 46.5824 63.3188 46.6991 63.0265 46.6995H52.9663C52.6758 46.6992 52.3972 46.5832 52.1918 46.377C51.9864 46.1708 51.8708 45.8913 51.8705 45.5997L51.8705 45.1263ZM61.892 68.768C61.7242 68.8961 61.5878 69.0609 61.4931 69.25C61.3984 69.439 61.3481 69.6473 61.3458 69.8588V72.7982C61.3458 73.6889 60.9932 74.5431 60.3657 75.1729C59.7382 75.8027 58.8871 76.1565 57.9997 76.1565C57.1123 76.1565 56.2612 75.8027 55.6337 75.1729C55.0062 74.5431 54.6537 73.6889 54.6537 72.7982V69.8611C54.6571 69.6608 54.615 69.4623 54.5305 69.2808C54.446 69.0993 54.3213 68.9395 54.166 68.8137C53.2853 68.1416 52.5976 67.2476 52.1725 66.2225C51.7474 65.1973 51.6002 64.0776 51.7457 62.9768C51.9517 61.3823 52.7548 59.9262 53.9917 58.9044C55.2286 57.8826 56.8067 57.3716 58.4054 57.4752C60.0041 57.5788 61.5036 58.2893 62.5993 59.4623C63.695 60.6353 64.3048 62.183 64.3048 63.7909C64.3072 64.7502 64.091 65.6973 63.6728 66.56C63.2546 67.4226 62.6455 68.1779 61.892 68.768V68.768Z" fill="#004F9E"/>
<path d="M86.7352 95.127H30.4917C28.1328 95.1309 25.8718 96.0742 24.2052 97.7497C22.5386 99.4252 21.6025 101.696 21.6025 104.064C21.6025 106.431 22.5386 108.702 24.2052 110.377C25.8718 112.053 28.1328 112.996 30.4917 113H86.7352C89.0941 112.996 91.3551 112.053 93.0217 110.377C94.6883 108.702 95.6244 106.431 95.6244 104.064C95.6244 101.696 94.6883 99.4252 93.0217 97.7497C91.3551 96.0742 89.0941 95.1309 86.7352 95.127ZM41.2633 105.561H34.3396C33.944 105.561 33.5647 105.403 33.285 105.122C33.0053 104.842 32.8481 104.461 32.8481 104.064C32.8481 103.667 33.0053 103.286 33.285 103.005C33.5647 102.725 33.944 102.567 34.3396 102.567H41.2633C41.6589 102.567 42.0382 102.725 42.318 103.005C42.5977 103.286 42.7548 103.667 42.7548 104.064C42.7548 104.461 42.5977 104.842 42.318 105.122C42.0382 105.403 41.6589 105.561 41.2633 105.561H41.2633ZM55.1379 105.561H48.2142C47.8186 105.561 47.4392 105.403 47.1595 105.122C46.8798 104.842 46.7227 104.461 46.7227 104.064C46.7227 103.667 46.8798 103.286 47.1595 103.005C47.4392 102.725 47.8186 102.567 48.2142 102.567H55.1379C55.5334 102.567 55.9128 102.725 56.1925 103.005C56.4722 103.286 56.6294 103.667 56.6294 104.064C56.6294 104.461 56.4722 104.842 56.1925 105.122C55.9128 105.403 55.5334 105.561 55.1379 105.561ZM69.0127 105.561H62.089C61.6935 105.561 61.3141 105.403 61.0344 105.122C60.7547 104.842 60.5975 104.461 60.5975 104.064C60.5975 103.667 60.7547 103.286 61.0344 103.005C61.3141 102.725 61.6935 102.567 62.089 102.567H69.0127C69.4083 102.567 69.7877 102.725 70.0674 103.005C70.3471 103.286 70.5042 103.667 70.5042 104.064C70.5042 104.461 70.3471 104.842 70.0674 105.122C69.7877 105.403 69.4083 105.561 69.0127 105.561H69.0127ZM82.8873 105.561H75.9636C75.568 105.561 75.1886 105.403 74.9089 105.122C74.6292 104.842 74.472 104.461 74.472 104.064C74.472 103.667 74.6292 103.286 74.9089 103.005C75.1886 102.725 75.568 102.567 75.9636 102.567H82.8873C83.2828 102.567 83.6622 102.725 83.9419 103.005C84.2216 103.286 84.3788 103.667 84.3788 104.064C84.3788 104.461 84.2216 104.842 83.9419 105.122C83.6622 105.403 83.2828 105.561 82.8873 105.561Z" fill="#004F9E"/>
</svg>
